<svg xmlns="http://www.w3.org/2000/svg" viewBox="0 0 100 100">
  <!-- Dark Luxury Rounded Square Background -->
  <rect width="100" height="100" rx="25" fill="#050505" stroke="#d4af37" stroke-width="1.5"/>
  
  <!-- Sleek golden gradient simulation or pure golden visual paths -->
  <!-- Elegant Cloche / Food Dome Dome -->
  <path d="M50,23 C35,23 24,33 24,46 L76,46 C76,33 65,23 50,23 Z" fill="none" stroke="#d4af37" stroke-width="3" stroke-linecap="round" stroke-linejoin="round"/>
  
  <!-- Small Cloche Loop Handle -->
  <path d="M47,19 C47,16 53,16 53,19" fill="none" stroke="#d4af37" stroke-width="3" stroke-linecap="round"/>
  
  <!-- Base Plate Holder Line -->
  <path d="M18,51 L82,51" fill="none" stroke="#d4af37" stroke-width="3.5" stroke-linecap="round"/>
  <path d="M15,55 L85,55" fill="none" stroke="#d4af37" stroke-width="1.5" stroke-linecap="round"/>
  
  <!-- Stylized Elegant Golden Monogram 'E' inside a small serif look -->
  <path d="M43,65 L57,65 M43,71 L53,71 M43,77 L57,77 M43,65 L43,77" fill="none" stroke="#d4af37" stroke-width="3.5" stroke-linecap="round" stroke-linejoin="round"/>
  
  <!-- Little luxury accent star -->
  <path d="M50,83 L51,85 L53,85 L51.5,86 L52,88 L50,86.5 L48,88 L48.5,86 L47,85 L49,85 Z" fill="#d4af37"/>
</svg>
